<?xml version="1.0" encoding="UTF-8"?>
<svg width="45px" height="40px" viewBox="0 0 45 40" version="1.1" xmlns="http://www.w3.org/2000/svg" xmlns:xlink="http://www.w3.org/1999/xlink">
    <!-- Generator: Sketch 41.1 (35376) - http://www.bohemiancoding.com/sketch -->
    <title>list-with-bullets</title>
    <desc>Created with Sketch.</desc>
    <defs></defs>
    <g id="Page-1" stroke="none" stroke-width="1" fill="none" fill-rule="evenodd">
        <g id="Desktop" transform="translate(-415.000000, -731.000000)" fill="#00BCD4">
            <g id="action-list" transform="translate(415.000000, 723.000000)">
                <g id="list-with-bullets" transform="translate(0.000000, 8.000000)">
                    <g id="Capa_1">
                        <g id="Group">
                            <ellipse id="Oval" cx="5.1121875" cy="5.0635" rx="5.1121875" ry="5.0635"></ellipse>
                            <ellipse id="Oval" cx="5.1121875" cy="19.0635" rx="5.1121875" ry="5.0635"></ellipse>
                            <ellipse id="Oval" cx="5.1121875" cy="34.0635" rx="5.1121875" ry="5.0635"></ellipse>
                            <g transform="translate(15.000000, 1.857143)" id="Shape">
                                <path d="M0.9375,6.62582143 L28.704375,6.62582143 C28.9523438,6.62582143 29.1914063,6.52785714 29.3671875,6.35375 C29.5429688,6.17964286 29.641875,5.94332143 29.641875,5.69725 L29.6409375,0.928571429 C29.6409375,0.416 29.2209375,0 28.7034375,0 L0.9375,0 C0.42,0 0,0.416 0,0.928571429 L0,5.69725 C0,6.20982143 0.41953125,6.62582143 0.9375,6.62582143 Z"></path>
                                <path d="M28.7034375,14 L0.9375,14 C0.42,14 0,14.416 0,14.9285714 L0,19.69725 C0,20.2098214 0.42,20.6258214 0.9375,20.6258214 L28.704375,20.6258214 C28.9523438,20.6258214 29.1914063,20.5278571 29.3671875,20.35375 C29.5429688,20.1796429 29.641875,19.9428571 29.641875,19.69725 L29.6409375,14.9285714 C29.6409375,14.416 29.221875,14 28.7034375,14 Z"></path>
                                <path d="M28.7034375,29 L0.9375,29 C0.42,29 0,29.416 0,29.9285714 L0,34.69725 C0,35.2098214 0.42,35.6258214 0.9375,35.6258214 L28.704375,35.6258214 C28.9523438,35.6258214 29.1914063,35.5278571 29.3671875,35.35375 C29.5429688,35.1796429 29.641875,34.9428571 29.641875,34.69725 L29.6409375,29.9285714 C29.6409375,29.416 29.221875,29 28.7034375,29 Z"></path>
                            </g>
                        </g>
                    </g>
                </g>
            </g>
        </g>
    </g>
</svg>