<?xml version="1.0" encoding="UTF-8"?>
<svg width="43px" height="45px" viewBox="0 0 43 45" version="1.1" xmlns="http://www.w3.org/2000/svg" xmlns:xlink="http://www.w3.org/1999/xlink">
    <!-- Generator: Sketch 41.1 (35376) - http://www.bohemiancoding.com/sketch -->
    <title>Capa_1</title>
    <desc>Created with Sketch.</desc>
    <defs></defs>
    <g id="Page-1" stroke="none" stroke-width="1" fill="none" fill-rule="evenodd">
        <g id="Desktop" transform="translate(-566.000000, -723.000000)" fill="#FF4081">
            <g id="action-list" transform="translate(415.000000, 723.000000)">
                <g id="check-mark" transform="translate(151.000000, 0.000000)">
                    <g id="Capa_1">
                        <path d="M15.9411099,44.9996858 C14.5445726,44.9996858 13.2237666,44.3452572 12.3746771,43.2228287 L0.907154702,28.0533287 C-0.584367686,26.0804001 -0.196084104,23.2711144 1.77357261,21.7764715 C3.74643828,20.2811858 6.54913978,20.6726858 8.04130396,22.6443287 L15.5836323,32.6201858 L34.5530502,2.11147151 C35.859095,0.0125429433 38.6168711,-0.629671342 40.7168114,0.676614372 C42.8141846,1.9841858 43.454692,4.74847151 42.1480054,6.84932866 L19.7392293,42.8879001 C18.9607368,44.1408287 17.6168263,44.9289715 16.1451995,44.9958287 C16.0765278,44.9984001 16.0091398,44.9996858 15.9411099,44.9996858 Z" id="Shape"></path>
                    </g>
                </g>
            </g>
        </g>
    </g>
</svg>